<svg width="237" height="40" viewBox="0 0 237 40" fill="none" xmlns="http://www.w3.org/2000/svg">
<path d="M60.2841 0.0545108V14.2873C60.2841 15.1145 60.113 15.9682 59.7717 16.8493C59.4296 17.7289 59.1155 18.5459 58.8286 19.2995L60.0142 19.7329C60.2663 18.9411 60.5089 18.0778 60.742 17.1436C60.9763 16.2101 61.3804 15.4374 61.9548 14.8269C62.9251 13.7844 64.1012 12.9484 65.4844 12.3194C66.869 11.6912 68.4593 11.3764 70.2568 11.3764C72.1974 11.3764 73.9853 11.7627 75.6207 12.5348C77.256 13.3074 78.6746 14.3404 79.878 15.6337C81.0826 16.9276 82.0264 18.4464 82.7098 20.1908C83.3925 21.9338 83.7523 23.7749 83.7891 25.7155C83.8252 27.7289 83.52 29.6068 82.8733 31.3491C82.226 33.0921 81.3007 34.6021 80.096 35.879C78.8913 37.1545 77.4529 38.1603 75.7815 38.8962C74.1114 39.6321 72.2696 40 70.2568 40C68.4252 40 66.826 39.7036 65.4599 39.1115C64.093 38.5194 62.9074 37.7017 61.903 36.6585C61.3266 36.0848 60.9307 35.3216 60.7147 34.369C60.5001 33.4151 60.2663 32.5429 60.0142 31.7525L58.8831 32.1314C59.1339 32.9218 59.4296 33.7578 59.7717 34.6389C60.113 35.5185 60.2841 36.3716 60.2841 37.1981V39.1387L53.7073 39.0842V0L60.2841 0.0545108ZM61.5242 25.8763C61.5242 26.9924 61.6945 28.0444 62.0366 29.0324C62.378 30.0191 62.8815 30.8633 63.5465 31.5645C64.2116 32.2663 65.0292 32.8237 65.9995 33.2379C66.9698 33.6509 68.0832 33.8566 69.341 33.8566C70.5982 33.8566 71.7122 33.6509 72.6825 33.2379C73.6528 32.8237 74.4705 32.2663 75.1355 31.5645C75.8006 30.8633 76.3034 30.0191 76.6455 29.0324C76.9868 28.0444 77.1579 26.9924 77.1579 25.8763C77.1579 24.7261 76.9868 23.6488 76.6455 22.6438C76.3034 21.6374 75.8006 20.757 75.1355 20.0027C74.4705 19.2471 73.6528 18.6447 72.6825 18.1957C71.7122 17.7473 70.5982 17.5225 69.341 17.5225C68.0832 17.5225 66.9698 17.7473 65.9995 18.1957C65.0292 18.6447 64.2116 19.2471 63.5465 20.0027C62.8815 20.757 62.378 21.6374 62.0366 22.6438C61.6945 23.6488 61.5242 24.7261 61.5242 25.8763Z" fill="black"/>
<path d="M88.3684 39.1393V12.1837H94.9996V12.9387C94.9996 13.9819 94.7748 15.0878 94.3264 16.2557C93.8774 17.4242 93.4549 18.4756 93.0591 19.4091L94.1384 19.8943C94.3523 19.3914 94.5676 18.8708 94.7843 18.3325C95.0003 17.7929 95.2429 17.2532 95.512 16.7136C95.7805 16.1739 96.0769 15.6799 96.4006 15.2309C96.7235 14.7825 97.1017 14.3962 97.5344 14.0725C98.2519 13.5329 98.9878 13.0831 99.7421 12.7234C100.498 12.3636 101.315 12.0856 102.195 11.8894C103.076 11.6918 104.038 11.5568 105.079 11.486C106.121 11.4137 107.308 11.377 108.638 11.377V17.523C106.985 17.523 105.34 17.6852 103.705 18.0082C102.07 18.3318 100.605 18.8708 99.3114 19.6244C98.0175 20.3787 96.9757 21.3851 96.1853 22.6443C95.3948 23.9022 94.9996 25.4646 94.9996 27.3323V39.1393H88.3684Z" fill="black"/>
<path d="M113.596 12.1838H120.173V39.1394H113.596V12.1838ZM113.274 1.4043H120.442V8.14183H113.274V1.4043Z" fill="black"/>
<path d="M125.67 25.6615C125.67 23.6139 126.011 21.719 126.695 19.976C127.377 18.2317 128.348 16.7217 129.606 15.4462C130.865 14.1706 132.401 13.1744 134.214 12.4563C136.03 11.7367 138.069 11.377 140.333 11.377C142.706 11.377 144.809 11.7551 146.64 12.5108C148.473 13.2651 150.028 14.2797 151.304 15.5552C152.581 16.8308 153.543 18.3046 154.19 19.976C154.837 21.6461 155.142 23.3795 155.106 25.1764C155.106 25.5361 155.115 25.9858 155.133 26.5255C155.151 27.0638 155.142 27.4406 155.106 27.6566H132.571C132.571 28.4109 132.741 29.157 133.083 29.8943C133.425 30.6302 133.928 31.3047 134.593 31.9166C135.258 32.5271 136.102 33.0218 137.125 33.3993C138.15 33.7754 139.364 33.9635 140.767 33.9635C142.634 33.9635 144.116 33.6405 145.212 32.9932C146.309 32.3466 147.001 31.6815 147.289 30.9981H155.212C154.997 31.6815 154.567 32.5448 153.92 33.5874C153.273 34.6285 152.356 35.6172 151.17 36.5528C149.983 37.4869 148.519 38.2957 146.776 38.9785C145.034 39.6599 142.994 40.0006 140.658 40.0006C138.177 40.0006 135.994 39.6231 134.108 38.8695C132.222 38.1158 130.658 37.0917 129.418 35.7978C128.178 34.5045 127.243 32.9864 126.613 31.2434C125.984 29.4991 125.67 27.6389 125.67 25.6615ZM140.118 17.414C137.71 17.414 135.85 17.9537 134.539 19.033C133.226 20.1109 132.571 21.5119 132.571 23.2358H147.829C147.829 21.3681 147.109 19.9311 145.67 18.924C144.232 17.9176 142.382 17.414 140.118 17.414Z" fill="black"/>
<path d="M177.259 12.1838V17.4141H170.467V38.9786H163.891V17.4141H158.554V12.1838H163.891V9.9216C163.927 8.62834 164.16 7.45159 164.591 6.39203C165.022 5.33112 165.597 4.43237 166.316 3.69647C167.036 2.95922 167.853 2.39299 168.769 1.99846C169.685 1.60258 170.646 1.4043 171.653 1.4043H177.905V6.7409H174.079C172.785 6.7409 171.859 7.02027 171.301 7.57764C170.745 8.13365 170.467 8.9152 170.467 9.9216V12.1838H177.259Z" fill="black"/>
<path d="M181.839 25.6615C181.839 23.6139 182.181 21.719 182.864 19.976C183.547 18.2317 184.517 16.7217 185.775 15.4462C187.034 14.1706 188.57 13.1744 190.384 12.4563C192.199 11.7367 194.238 11.377 196.503 11.377C198.875 11.377 200.978 11.7551 202.809 12.5108C204.642 13.2651 206.197 14.2797 207.473 15.5552C208.75 16.8308 209.712 18.3046 210.359 19.976C211.006 21.6461 211.311 23.3795 211.275 25.1764C211.275 25.5361 211.284 25.9858 211.302 26.5255C211.32 27.0638 211.311 27.4406 211.275 27.6566H188.74C188.74 28.4109 188.911 29.157 189.253 29.8943C189.594 30.6302 190.098 31.3047 190.763 31.9166C191.428 32.5271 192.271 33.0218 193.295 33.3993C194.319 33.7754 195.533 33.9635 196.936 33.9635C198.804 33.9635 200.286 33.6405 201.381 32.9932C202.478 32.3466 203.171 31.6815 203.458 30.9981H211.381C211.167 31.6815 210.736 32.5448 210.089 33.5874C209.442 34.6285 208.526 35.6172 207.339 36.5528C206.152 37.4869 204.688 38.2957 202.946 38.9785C201.203 39.6599 199.163 40.0006 196.827 40.0006C194.347 40.0006 192.164 39.6231 190.277 38.8695C188.391 38.1158 186.828 37.0917 185.587 35.7978C184.347 34.5045 183.412 32.9864 182.782 31.2434C182.153 29.4991 181.839 27.6389 181.839 25.6615ZM196.287 17.414C193.879 17.414 192.02 17.9537 190.708 19.033C189.396 20.1109 188.74 21.5119 188.74 23.2358H203.998C203.998 21.3681 203.278 19.9311 201.839 18.924C200.401 17.9176 198.551 17.414 196.287 17.414Z" fill="black"/>
<path d="M216.339 39.1393V12.1837H222.971V12.9387C222.971 13.9819 222.746 15.0878 222.298 16.2557C221.848 17.4242 221.426 18.4756 221.03 19.4091L222.109 19.8943C222.323 19.3914 222.539 18.8708 222.755 18.3325C222.971 17.7929 223.214 17.2532 223.483 16.7136C223.752 16.1739 224.048 15.6799 224.372 15.2309C224.695 14.7825 225.073 14.3962 225.505 14.0725C226.223 13.5329 226.959 13.0831 227.713 12.7234C228.469 12.3636 229.286 12.0856 230.166 11.8894C231.047 11.6918 232.009 11.5568 233.05 11.486C234.092 11.4137 235.279 11.377 236.609 11.377V17.523C234.956 17.523 233.311 17.6852 231.676 18.0082C230.041 18.3318 228.576 18.8708 227.283 19.6244C225.989 20.3787 224.947 21.3851 224.156 22.6443C223.366 23.9022 222.971 25.4646 222.971 27.3323V39.1393H216.339Z" fill="black"/>
<path fill-rule="evenodd" clip-rule="evenodd" d="M13.9766 5.62465C14.1285 5.62465 14.2764 5.64849 14.4201 5.69687C14.5646 5.74525 14.6968 5.81475 14.8181 5.90606C14.9394 5.99804 15.0429 6.10638 15.1288 6.23108C15.2146 6.35645 15.2787 6.49205 15.3203 6.63786L16.8357 11.9424C16.9167 12.2266 17.0155 12.5046 17.1321 12.7765C17.2486 13.0483 17.3821 13.312 17.532 13.5669C17.6819 13.8217 17.8475 14.0663 18.0281 14.3C18.2093 14.5337 18.4042 14.7559 18.6134 14.9651C18.8226 15.1742 19.0447 15.3691 19.2784 15.5504C19.5121 15.7309 19.7567 15.8965 20.0116 16.0464C20.2664 16.1963 20.5301 16.3299 20.802 16.4464C21.0739 16.5629 21.3519 16.6617 21.636 16.7428L26.9399 18.2582C27.0864 18.2998 27.222 18.3638 27.3467 18.4497C27.4721 18.5355 27.5804 18.6391 27.6717 18.7604C27.763 18.8817 27.8325 19.0145 27.8809 19.1583C27.9293 19.3021 27.9531 19.4499 27.9531 19.6019C27.9531 19.7538 27.9293 19.9017 27.8809 20.0455C27.8325 20.1892 27.763 20.3221 27.6717 20.4434C27.5804 20.5647 27.4721 20.6683 27.3467 20.7541C27.222 20.84 27.0864 20.904 26.9399 20.9456L21.636 22.461C21.3519 22.5421 21.0739 22.6409 20.802 22.7574C20.5301 22.8739 20.2664 23.0074 20.0116 23.1574C19.7567 23.3073 19.5121 23.4728 19.2784 23.6541C19.0447 23.8346 18.8226 24.0302 18.6134 24.2387C18.4042 24.4479 18.2093 24.67 18.0281 24.9037C17.8475 25.1375 17.6819 25.3821 17.532 25.6369C17.3821 25.8917 17.2486 26.1554 17.1321 26.4273C17.0155 26.6992 16.9167 26.9772 16.8357 27.2613L15.3203 32.5659C15.2787 32.7117 15.2146 32.8473 15.1288 32.972C15.0429 33.0974 14.9394 33.2057 14.8181 33.297C14.6968 33.3883 14.5639 33.4578 14.4201 33.5062C14.2764 33.5546 14.1285 33.5784 13.9766 33.5784C13.8246 33.5784 13.6768 33.5546 13.533 33.5062C13.3892 33.4578 13.2563 33.3883 13.1351 33.297C13.0138 33.2057 12.9102 33.0974 12.8243 32.972C12.7385 32.8473 12.6744 32.7117 12.6329 32.5659L11.1175 27.2613C11.0364 26.9772 10.9376 26.6992 10.8211 26.4273C10.7046 26.1554 10.571 25.8917 10.4211 25.6369C10.2712 25.3821 10.1056 25.1375 9.92437 24.9037C9.7438 24.67 9.54824 24.4479 9.33974 24.2387C9.13055 24.0302 8.90842 23.8346 8.67471 23.6541C8.44099 23.4728 8.19638 23.3073 7.94154 23.1574C7.6867 23.0074 7.423 22.8739 7.15113 22.7574C6.87926 22.6409 6.60125 22.5421 6.31712 22.461L1.01254 20.9456C0.866721 20.904 0.731126 20.84 0.606432 20.7541C0.481058 20.6683 0.372717 20.5647 0.281412 20.4434C0.190106 20.3221 0.120605 20.1892 0.0722268 20.0455C0.0238484 19.9017 0 19.7538 0 19.6019C0 19.4499 0.0238484 19.3021 0.0722268 19.1583C0.120605 19.0145 0.190106 18.8817 0.281412 18.7604C0.372717 18.6391 0.481058 18.5355 0.606432 18.4497C0.731126 18.3638 0.866721 18.2998 1.01254 18.2582L6.31712 16.7428C6.60125 16.6617 6.87926 16.5629 7.15113 16.4464C7.423 16.3299 7.6867 16.1963 7.94154 16.0464C8.19638 15.8965 8.44099 15.7309 8.67471 15.5504C8.90842 15.3691 9.13055 15.1742 9.33974 14.9651C9.54824 14.7559 9.7438 14.5337 9.92437 14.3C10.1056 14.0663 10.2712 13.8217 10.4211 13.5669C10.571 13.312 10.7046 13.0483 10.8211 12.7765C10.9376 12.5046 11.0364 12.2266 11.1175 11.9424L12.6329 6.63786C12.6744 6.49205 12.7385 6.35645 12.8243 6.23108C12.9102 6.10638 13.0138 5.99804 13.1351 5.90606C13.2563 5.81475 13.3885 5.74525 13.533 5.69687C13.6768 5.64849 13.8246 5.62465 13.9766 5.62465ZM30.7495 0.0332031C30.9056 0.0332031 31.0575 0.0584143 31.2047 0.109518C31.3519 0.159941 31.4875 0.232849 31.6101 0.328924C31.7334 0.424999 31.837 0.538109 31.9222 0.668935C32.0074 0.799761 32.0687 0.940807 32.1062 1.09207L32.5872 3.02244C33.0267 4.77428 34.3949 6.1425 36.1468 6.58199L38.0778 7.06305C38.2291 7.10052 38.3701 7.16185 38.5016 7.24702C38.6325 7.33151 38.7463 7.43577 38.8423 7.55841C38.9384 7.68175 39.012 7.81666 39.0631 7.96452C39.1135 8.1117 39.1394 8.26365 39.1394 8.41968C39.1394 8.57572 39.1135 8.72767 39.0631 8.87553C39.012 9.02271 38.9384 9.15831 38.8423 9.28095C38.7463 9.40429 38.6325 9.50786 38.5016 9.59303C38.3701 9.6782 38.2291 9.73885 38.0778 9.77632L36.1468 10.2574C34.3949 10.6976 33.0267 12.0651 32.5872 13.8169L32.1062 15.748C32.0687 15.8992 32.0074 16.041 31.9229 16.1718C31.8377 16.3026 31.7341 16.4164 31.6108 16.5125C31.4881 16.6086 31.3525 16.6822 31.2054 16.7333C31.0575 16.7844 30.9056 16.8096 30.7495 16.8096C30.5935 16.8096 30.4415 16.7844 30.2944 16.7333C30.1465 16.6822 30.0109 16.6086 29.8883 16.5125C29.7649 16.4164 29.6614 16.3026 29.5762 16.1718C29.4917 16.041 29.4304 15.8992 29.3929 15.748L28.9118 13.8169C28.8587 13.603 28.7905 13.3938 28.7088 13.1887C28.627 12.9836 28.5316 12.7853 28.4233 12.5932C28.3143 12.401 28.193 12.217 28.0594 12.0419C27.9259 11.8661 27.7814 11.7006 27.6254 11.5445C27.4693 11.3885 27.3031 11.2433 27.128 11.1098C26.9522 10.9762 26.7682 10.855 26.576 10.7466C26.3846 10.6376 26.1856 10.5422 25.9812 10.4604C25.7761 10.3787 25.5662 10.3112 25.3523 10.2574L23.4219 9.77632C23.27 9.73885 23.1289 9.6782 22.9981 9.59303C22.8666 9.50786 22.7528 9.40429 22.6567 9.28095C22.5606 9.15831 22.4871 9.02271 22.436 8.87553C22.3855 8.72767 22.3596 8.57572 22.3596 8.41968C22.3596 8.26365 22.3855 8.1117 22.436 7.96452C22.4871 7.81666 22.5606 7.68175 22.6567 7.55841C22.7528 7.43577 22.8666 7.33151 22.9981 7.24702C23.1289 7.16185 23.27 7.10052 23.4219 7.06305L25.3523 6.58199C25.5662 6.52884 25.7761 6.46139 25.9812 6.37894C26.1856 6.29717 26.3846 6.20178 26.576 6.09344C26.7682 5.98442 26.9522 5.86381 27.128 5.72958C27.3031 5.59603 27.4693 5.45157 27.6254 5.29554C27.7814 5.1395 27.9259 4.97392 28.0594 4.79813C28.193 4.62233 28.3143 4.43835 28.4233 4.2462C28.5316 4.05473 28.627 3.85577 28.7088 3.65136C28.7905 3.44626 28.8587 3.23707 28.9118 3.02244L29.3929 1.09207C29.4304 0.940807 29.4924 0.799761 29.5769 0.668935C29.662 0.538109 29.7663 0.424999 29.8889 0.328924C30.0116 0.232849 30.1472 0.159941 30.2944 0.109518C30.4422 0.0584143 30.5935 0.0332031 30.7495 0.0332031ZM27.9538 25.1926C28.101 25.1926 28.2441 25.2151 28.3838 25.2601C28.5234 25.3051 28.6529 25.3705 28.7721 25.4563C28.8914 25.5422 28.9943 25.6444 29.0808 25.763C29.168 25.8808 29.2348 26.0096 29.2811 26.1493L30.015 28.3536C30.295 29.1869 30.9471 29.8431 31.7818 30.1204L33.9868 30.8563C34.1258 30.9033 34.2539 30.9701 34.3718 31.0566C34.4896 31.1439 34.5912 31.2467 34.677 31.3653C34.7622 31.4846 34.8276 31.6133 34.8726 31.753C34.9176 31.8927 34.9394 32.0351 34.9394 32.1816C34.9394 32.3281 34.9176 32.4712 34.8726 32.6102C34.8276 32.7499 34.7622 32.8787 34.677 32.9979C34.5912 33.1165 34.4896 33.2194 34.3718 33.3066C34.2539 33.3931 34.1258 33.4599 33.9868 33.5069L31.7818 34.2428C30.9492 34.5222 30.293 35.1749 30.015 36.0096L29.2791 38.2146C29.2328 38.3529 29.166 38.4817 29.0788 38.5996C28.9922 38.7175 28.8893 38.819 28.7701 38.9041C28.6515 38.99 28.5221 39.0547 28.3831 39.0997C28.2434 39.1447 28.1003 39.1672 27.9538 39.1672C27.808 39.1672 27.6649 39.1447 27.5252 39.0997C27.3862 39.0547 27.2567 38.99 27.1382 38.9041C27.0189 38.819 26.9161 38.7175 26.8295 38.5996C26.7423 38.4817 26.6755 38.3529 26.6292 38.2146L25.8926 36.0096C25.8245 35.8038 25.7332 35.609 25.6187 35.4243C25.5049 35.2403 25.3714 35.0714 25.218 34.918C25.0647 34.7647 24.8957 34.6312 24.7111 34.5167C24.5271 34.4029 24.3316 34.3116 24.1258 34.2428L21.9215 33.5069C21.7825 33.4599 21.6544 33.3931 21.5365 33.3066C21.4186 33.2194 21.3171 33.1165 21.2313 32.9979C21.1461 32.8787 21.0807 32.7499 21.0357 32.6102C20.9907 32.4712 20.9682 32.3281 20.9682 32.1816C20.9682 32.0351 20.9907 31.8927 21.0357 31.753C21.0807 31.6133 21.1461 31.4846 21.2313 31.3653C21.3171 31.2467 21.4186 31.1439 21.5365 31.0566C21.6544 30.9701 21.7825 30.9033 21.9215 30.8563L24.1258 30.1204C24.9591 29.8411 25.6153 29.189 25.8926 28.3536L26.6292 26.1493C26.6755 26.0096 26.7416 25.8815 26.8288 25.763C26.9154 25.6451 27.0183 25.5429 27.1375 25.457C27.2561 25.3712 27.3855 25.3058 27.5252 25.2608C27.6642 25.2158 27.8073 25.1933 27.9538 25.1926Z" fill="black"/>
</svg>
