<svg width="120" height="31" viewBox="0 0 120 31" fill="none" xmlns="http://www.w3.org/2000/svg">
<g clip-path="url(#clip0_37_144)">
<path d="M44.8488 24.2779V26.1616H41.2024V4.63867H44.8488V12.9185C45.716 11.6932 47.3305 10.8556 49.2735 10.8556C53.7278 10.8556 56.3873 14.024 56.3873 18.6278C56.3873 23.2316 53.7265 26.4 49.2129 26.4C47.3897 26.4 45.716 25.5934 44.8488 24.2779ZM52.7408 18.6278C52.7408 15.8485 51.1264 14.0253 48.6756 14.0253C46.2249 14.0253 44.6105 15.8485 44.6105 18.6291C44.6105 21.4097 46.2236 23.2316 48.6756 23.2316C51.1264 23.2316 52.7408 21.4084 52.7408 18.6278Z" fill="black"/>
<path d="M72.8889 26.1616H69.2116V23.8294C68.3741 25.4735 66.6707 26.4 64.5189 26.4C61.1405 26.4 58.9294 23.9492 58.9294 20.4214V11.0953H62.5759V19.6444C62.5759 21.7073 63.8618 23.1414 65.7146 23.1414C67.7775 23.1414 69.2116 21.5269 69.2116 19.3145V11.094H72.8889V26.1616Z" fill="black"/>
<path d="M75.3694 21.1389H78.7169C78.8664 22.5743 79.9719 23.471 81.616 23.471C83.0514 23.471 84.0074 22.7534 84.0074 21.8566C84.0074 18.5091 75.7572 21.7071 75.7572 15.3407C75.7572 12.7096 78.0585 10.8567 81.1676 10.8567C84.6955 10.8567 87.1166 12.7998 87.266 15.7285H83.9185C83.7098 14.324 82.4239 13.6064 81.2578 13.6064C79.9422 13.6064 79.0751 14.2042 79.0751 15.2208C79.0751 18.4794 87.4451 14.8923 87.4451 21.7071C87.4451 24.5469 85.1439 26.3998 81.616 26.3998C77.9708 26.3998 75.5485 24.3678 75.3694 21.1389Z" fill="black"/>
<path d="M90.2269 4.63867H93.8734V13.4275C94.7109 11.7833 96.4439 10.8569 98.597 10.8569C101.975 10.8569 104.186 13.3076 104.186 16.8355V26.1616H100.54V17.6125C100.54 15.5496 99.2541 14.1155 97.3716 14.1155C95.3384 14.1155 93.8746 15.73 93.8746 17.9423V26.1629H90.2282V4.63867H90.2269Z" fill="black"/>
<path d="M120 16.4758V26.1614H116.383V23.9194C115.756 25.4141 114.021 26.4011 111.87 26.4011C108.88 26.4011 106.847 24.4877 106.847 21.8875C106.847 18.9575 109.119 17.1342 112.497 17.1342H115.278C116.025 17.1342 116.383 16.7155 116.383 16.1176C116.383 14.6526 115.247 13.6064 113.304 13.6064C111.361 13.6064 110.195 14.8317 110.135 16.1769H106.847C107.026 13.1876 109.567 10.8567 113.483 10.8567C117.31 10.8554 120 13.0678 120 16.4758ZM116.383 19.7937V19.554H113.005C111.451 19.554 110.405 20.4212 110.405 21.7367C110.405 22.9028 111.361 23.6798 112.737 23.6798C115.037 23.6798 116.383 22.0653 116.383 19.7937Z" fill="black"/>
<path d="M28.4531 30.9022C28.1294 30.9027 27.8087 30.8385 27.5101 30.7134C27.2115 30.5882 26.9409 30.4047 26.7142 30.1735L0.720416 4.19734C0.30179 3.72643 0.079201 3.11324 0.0983031 2.48349C0.117405 1.85375 0.376748 1.25518 0.823147 0.810501C1.26955 0.36582 1.86918 0.108729 2.4991 0.0919413C3.12903 0.075154 3.74151 0.299937 4.21097 0.720211L30.192 26.6964C30.5347 27.0414 30.7678 27.4799 30.862 27.9569C30.9563 28.4339 30.9074 28.9281 30.7216 29.3775C30.5359 29.8268 30.2214 30.2113 29.8178 30.4825C29.4142 30.7538 28.9395 30.8998 28.4531 30.9022Z" fill="black"/>
<path d="M28.4551 15.9504C28.1312 15.9495 27.8107 15.8846 27.512 15.7594C27.2133 15.6342 26.9422 15.4512 26.7145 15.2209L15.6947 4.20195C15.2331 3.74034 14.9738 3.11427 14.9738 2.46145C14.9738 1.80863 15.2331 1.18255 15.6947 0.72094C16.1564 0.25933 16.7825 0 17.4354 0C18.0882 0 18.7144 0.25933 19.176 0.72094L30.1958 11.7399C30.4264 11.9673 30.6095 12.2383 30.7345 12.5371C30.8595 12.8358 30.9239 13.1565 30.9239 13.4804C30.9239 13.8043 30.8595 14.1249 30.7345 14.4237C30.6095 14.7225 30.4264 14.9935 30.1958 15.2209C29.9698 15.4535 29.6991 15.638 29.4 15.7634C29.1008 15.8888 28.7795 15.9523 28.4551 15.9504Z" fill="black"/>
<path d="M13.4814 30.9238C13.1575 30.9229 12.837 30.858 12.5382 30.7328C12.2395 30.6076 11.9685 30.4246 11.7407 30.1943L0.720994 19.1754C0.492411 18.9468 0.311081 18.6754 0.187373 18.3768C0.0636644 18.0782 0 17.7581 0 17.4349C0 17.1116 0.0636644 16.7915 0.187373 16.4929C0.311081 16.1943 0.492411 15.9229 0.720994 15.6944C0.949578 15.4658 1.22095 15.2845 1.51961 15.1608C1.81826 15.0371 2.13836 14.9734 2.46163 14.9734C2.78489 14.9734 3.10499 15.0371 3.40365 15.1608C3.7023 15.2845 3.97367 15.4658 4.20226 15.6944L15.222 26.7133C15.4526 26.9407 15.6358 27.2117 15.7608 27.5105C15.8858 27.8093 15.9502 28.1299 15.9502 28.4538C15.9502 28.7777 15.8858 29.0983 15.7608 29.3971C15.6358 29.6959 15.4526 29.9669 15.222 30.1943C14.996 30.4269 14.7253 30.6115 14.4262 30.7368C14.1271 30.8622 13.8057 30.9258 13.4814 30.9238Z" fill="black"/>
</g>
<defs>
<clipPath id="clip0_37_144">
<rect width="120" height="31" fill="white"/>
</clipPath>
</defs>
</svg>
