<svg width="112" height="40" viewBox="0 0 112 40" fill="none" xmlns="http://www.w3.org/2000/svg">
<path d="M17.9007 30.9776C17.445 31.5048 16.9103 31.9583 16.3158 32.3219C15.65 32.7147 14.887 32.9117 14.1143 32.8903C12.1694 32.8903 10.6596 32.3048 9.58495 31.1339C8.51028 29.963 7.97292 28.4292 7.97292 26.5325C7.97292 24.6377 8.51028 23.1039 9.58495 21.931C10.6596 20.758 12.1694 20.1645 14.1143 20.1505C14.8816 20.1462 15.638 20.3322 16.3158 20.6919C16.9491 21.01 17.4937 21.4801 17.9007 22.0603C18.1093 21.2192 18.3911 20.398 18.7428 19.6062C19.4203 18.0703 20.3336 16.6496 21.4496 15.3956C20.6205 14.822 19.7074 14.3807 18.7428 14.0874C17.2451 13.6076 15.6839 13.3552 14.1113 13.3385C12.2732 13.326 10.4474 13.6396 8.71879 14.2648C7.08904 14.8492 5.59295 15.7542 4.31879 16.9265C3.06207 18.096 2.05976 19.5118 1.37443 21.0859C0.638575 22.7998 0.271726 24.6494 0.297741 26.5144C0.272889 28.3742 0.638668 30.2185 1.37143 31.9279C2.05506 33.503 3.05638 34.9201 4.31277 36.0903C5.58736 37.2687 7.08568 38.1788 8.71879 38.767C10.4539 39.3956 12.287 39.7105 14.1323 39.6964C15.705 39.6795 17.2662 39.4272 18.7639 38.9475C19.7288 38.6552 20.6421 38.2137 21.4707 37.6392C20.3546 36.3854 19.4414 34.9646 18.7639 33.4287C18.4152 32.6356 18.1336 31.8146 17.9218 30.9746L17.9007 30.9776Z" fill="black"/>
<path d="M84.3639 30.9774C83.9083 31.5046 83.3736 31.9582 82.779 32.3218C82.1131 32.7145 81.3501 32.9115 80.5775 32.8902C78.6307 32.8902 77.1209 32.3046 76.0481 31.1338C74.9754 29.9629 74.4382 28.4291 74.4361 26.5323C74.4361 24.6376 74.9736 23.1037 76.0481 21.9308C77.1227 20.7579 78.6325 20.1644 80.5775 20.1504C81.3447 20.146 82.1011 20.3321 82.779 20.6917C83.4124 21.0098 83.957 21.48 84.3639 22.0601C84.5724 21.2191 84.8542 20.3979 85.206 19.606C85.8836 18.0701 86.7967 16.6495 87.9128 15.3955C87.0836 14.8219 86.1706 14.3805 85.206 14.0872C83.7083 13.6075 82.1471 13.3551 80.5745 13.3383C78.729 13.3244 76.896 13.639 75.1609 14.2677C73.5312 14.8521 72.0349 15.7571 70.7609 16.9293C69.5053 18.0991 68.5041 19.515 67.8196 21.0887C67.0869 22.7982 66.7209 24.6425 66.7459 26.5022C66.7209 28.362 67.0869 30.2063 67.8196 31.9157C68.5032 33.4908 69.5044 34.9079 70.7609 36.0782C72.0397 37.2628 73.5444 38.1774 75.185 38.7669C76.92 39.3954 78.7531 39.7103 80.5985 39.6962C82.1711 39.6797 83.7324 39.427 85.2301 38.9473C86.1898 38.6535 87.0978 38.2123 87.9218 37.6391C86.8057 36.3852 85.8927 34.9645 85.2151 33.4285C84.8665 32.6354 84.5847 31.8144 84.373 30.9744L84.3639 30.9774Z" fill="black"/>
<path d="M45.1399 34.737C43.9113 36.3225 42.3128 37.5824 40.4842 38.4061C38.6566 39.2564 36.6653 39.6976 34.6496 39.6994C32.8036 39.7222 30.9687 39.4073 29.2361 38.77C27.6064 38.1857 26.1103 37.2807 24.8361 36.1084C23.5797 34.9382 22.5784 33.521 21.8948 31.946C21.162 30.2365 20.7962 28.3922 20.8211 26.5325C20.7962 24.6727 21.162 22.8284 21.8948 21.1189C22.5776 19.5443 23.5791 18.1281 24.8361 16.9595C26.1103 15.7873 27.6064 14.8823 29.2361 14.2979C30.9711 13.6693 32.8042 13.3546 34.6496 13.3686C36.308 13.3459 37.9537 13.6621 39.4857 14.2979C40.9005 14.8927 42.1609 15.8031 43.1699 16.9595C44.2123 18.179 45.0036 19.5926 45.4978 21.1189C46.0629 22.867 46.3393 24.6955 46.3158 26.5325V28.9626H28.5083C28.7568 30.327 29.4596 31.567 30.5023 32.4813C31.5567 33.3724 32.9026 33.8434 34.2827 33.8046C35.4093 33.8416 36.5215 33.5442 37.4797 32.9505C38.3672 32.3637 39.139 31.6185 39.7564 30.752L45.1308 34.7309L45.1399 34.737ZM38.6406 23.6753C38.6662 23.0482 38.5621 22.4225 38.3354 21.8373C38.1083 21.2521 37.7633 20.7198 37.3218 20.2737C36.8803 19.8277 36.3516 19.4773 35.7687 19.2445C35.1859 19.0116 34.5612 18.9013 33.9339 18.9204C32.4887 18.8863 31.0869 19.4147 30.0241 20.3941C29.5688 20.8182 29.2037 21.3296 28.9504 21.8979C28.6954 22.4601 28.5475 23.0649 28.5143 23.6813L38.6406 23.6753Z" fill="black"/>
<path d="M90.6105 0H98.2857V39.3804H90.6105V0Z" fill="black"/>
<path d="M101.838 13.3564H109.513V39.3805H101.838V13.3564Z" fill="black"/>
<path d="M64.0722 20.7159C64.1865 20.4151 64.3128 20.0873 64.4481 19.7805C65.3098 17.8064 66.5678 16.0304 68.1444 14.5625C68.2196 14.4933 68.2918 14.4271 68.3699 14.361C67.0572 13.8735 65.6803 13.5807 64.2827 13.4918C63.982 13.4738 63.6481 13.4407 63.3203 13.4407C61.8166 13.4407 58.5293 13.97 56.6587 15.6723H56.5594V14.1685H48.7609V39.2633H56.8542V26.2347C56.8719 25.644 56.9733 25.0587 57.1549 24.4963C57.3561 23.8273 57.6827 23.2027 58.1173 22.6557C58.6045 22.0584 59.2096 21.568 59.8948 21.2151C60.7444 20.7912 61.6857 20.5845 62.6346 20.6136C62.9624 20.6136 63.3023 20.6317 63.6451 20.6647L64.0782 20.7129L64.0722 20.7159Z" fill="black"/>
<path d="M101.224 6.04822C101.215 5.45755 101.326 4.87114 101.55 4.32468C101.774 3.77818 102.108 3.28302 102.529 2.86928C102.94 2.45208 103.43 2.12077 103.97 1.89462C104.51 1.66847 105.09 1.552 105.675 1.552C106.261 1.552 106.84 1.66847 107.38 1.89462C107.921 2.12077 108.41 2.45208 108.821 2.86928C109.243 3.28302 109.576 3.77818 109.8 4.32468C110.025 4.87114 110.136 5.45755 110.126 6.04822C110.136 6.6389 110.025 7.22531 109.8 7.7718C109.576 8.31827 109.243 8.81343 108.821 9.22717C108.41 9.64437 107.921 9.97568 107.38 10.2018C106.84 10.428 106.261 10.5445 105.675 10.5445C105.09 10.5445 104.51 10.428 103.97 10.2018C103.43 9.97568 102.94 9.64437 102.529 9.22717C102.108 8.81343 101.774 8.31827 101.55 7.7718C101.326 7.22531 101.215 6.6389 101.224 6.04822Z" fill="#A2A2A2"/>
</svg>
