<svg width="240" height="123" viewBox="0 0 240 123" fill="none" xmlns="http://www.w3.org/2000/svg">
<path d="M36.0448 78.3289C15.9968 78.3289 0 63.1983 0 43.2301C0 23.3649 15.9968 8.13139 36.0448 8.13139C48.9253 8.13139 59.6245 14.3071 65.4415 23.7766L57.1315 29.8494C52.3532 22.5414 45.2897 18.1155 36.1486 18.1155C22.0216 18.1155 11.4263 28.7172 11.4263 43.2301C11.4263 57.7431 22.0216 68.3448 36.1486 68.3448C45.2897 68.3448 52.3532 63.9188 57.1315 56.6109L65.4415 62.6837C59.7283 72.1531 48.9253 78.3289 36.0448 78.3289Z" fill="black"/>
<path d="M71.6529 77.1967V26.6586H82.5598V77.1967H71.6529ZM69.7832 7.8226C69.7832 3.80837 73.0033 0.720505 77.1583 0.720505C81.2094 0.720505 84.4296 3.80837 84.4296 7.8226C84.4296 11.7339 81.2094 14.8218 77.1583 14.8218C73.0033 14.8218 69.7832 11.7339 69.7832 7.8226Z" fill="black"/>
<path d="M90.0218 77.1967V26.6586H100.202V33.246C103.837 28.6142 109.239 26.1439 115.056 26.1439C116.822 26.1439 118.068 26.3498 119.211 26.6586V36.231H115.887C107.785 36.231 100.929 40.8628 100.929 50.2293V77.1967H90.0218Z" fill="black"/>
<path d="M145.516 78.3289C130.454 78.3289 118.508 66.8008 118.508 51.8762C118.508 37.0544 130.454 25.5264 145.516 25.5264C155.176 25.5264 162.655 30.1582 167.018 37.2603L159.331 43.2301C156.007 38.5983 151.748 35.5105 145.619 35.5105C136.271 35.5105 129.623 42.7155 129.623 51.8762C129.623 61.2427 136.271 68.3448 145.619 68.3448C151.644 68.3448 155.903 65.3598 159.331 60.728L167.018 66.595C162.551 73.6971 155.072 78.3289 145.516 78.3289Z" fill="black"/>
<path d="M172.81 77.1967V0H183.717V77.1967H172.81Z" fill="black"/>
<path d="M217.459 78.3289C201.67 78.3289 190.036 66.9038 190.036 51.9791C190.036 37.1573 201.566 25.5264 216.42 25.5264C230.028 25.5264 240 35.4075 240 48.6854C240 51.4644 239.481 54.1406 239.169 55.4787H201.151C202.605 63.8159 209.045 68.7565 217.771 68.7565C223.692 68.7565 228.366 66.4921 232.625 62.7866L237.819 70.1975C232.417 75.241 225.561 78.3289 217.459 78.3289ZM201.358 47.0385H229.093C228.885 39.113 222.964 34.687 216.005 34.687C208.837 34.687 203.02 39.5247 201.358 47.0385Z" fill="black"/>
<path d="M56.8844 123V101.076H60.5304V110.154H71.4685V101.076H75.1145V123H71.4685V113.582H60.5304V123H56.8844Z" fill="black"/>
<path d="M83.0537 123V101.076H96.3601V104.535H86.6997V110.154H94.4904V113.613H86.6997V119.542H96.3601V123H83.0537Z" fill="black"/>
<path d="M100.459 123L110.119 101.076H113.298L122.958 123H119.156L116.632 117.257H106.722L104.229 123H100.459ZM108.125 114.045H115.23L111.677 105.924L108.125 114.045Z" fill="black"/>
<path d="M128.302 123V101.076H131.948V119.542H142.075V123H128.302Z" fill="black"/>
<path d="M149.124 123V104.535H142.705V101.076H159.221V104.535H152.77V123H149.124Z" fill="black"/>
<path d="M164.998 123V101.076H168.644V110.154H179.582V101.076H183.228V123H179.582V113.582H168.644V123H164.998Z" fill="black"/>
</svg>
