<svg width="224" height="40" viewBox="0 0 224 40" fill="none" xmlns="http://www.w3.org/2000/svg">
<g clip-path="url(#clip0_505_16)">
<path d="M0 20.003C0 9.24569 8.14413 0.00292969 20.2343 0.00292969C32.3243 0.00292969 41.225 9.66886 39.8825 22.3563H8.56322C9.65355 28.7445 14.9458 32.3563 20.4865 32.3563C25.1037 32.3563 29.3018 30.0883 31.4862 26.4728L37.7835 30.7602C34.2565 36.4728 27.9593 40.003 20.4865 40.003C8.64852 40.003 0 30.7602 0 20.003ZM31.4862 16.2204C30.815 11.7661 26.4498 7.39714 20.2343 7.39714C14.0186 7.39714 10.0763 11.2613 8.8154 16.2204H31.4862Z" fill="black"/>
<path d="M48.5287 22.5268V0.930664H56.5059V22.6975C56.5059 28.581 59.8659 32.3635 65.4067 32.3635C70.9474 32.3635 74.3074 28.581 74.3074 22.6975V0.930664H82.2845V22.5268C82.2845 32.1073 76.7439 40.0063 65.4067 40.0063C54.0694 40.0063 48.5287 32.1073 48.5287 22.5268Z" fill="black"/>
<path d="M93.1157 39.0787V0.927206H100.589V5.29617C102.016 3.02817 105.962 0.00292969 111.922 0.00292969C120.904 0.00292969 127.035 6.55824 127.035 15.0438V39.0787H119.058V16.7253C119.058 11.265 115.697 7.48251 110.324 7.48251C104.95 7.48251 101.089 11.3467 101.089 17.4825V39.0787H93.112H93.1157Z" fill="black"/>
<path d="M135.176 20.003C135.176 9.24569 143.32 0.00292969 155.41 0.00292969C167.5 0.00292969 176.402 9.66886 175.058 22.3563H143.739C144.829 28.7445 150.122 32.3563 155.662 32.3563C160.28 32.3563 164.478 30.0883 166.662 26.4728L172.96 30.7602C169.432 36.4728 163.135 40.003 155.662 40.003C143.824 40.003 135.176 30.7602 135.176 20.003ZM166.662 16.2204C165.991 11.7661 161.626 7.39714 155.41 7.39714C149.194 7.39714 145.252 11.2613 143.991 16.2204H166.662Z" fill="black"/>
<path d="M182.363 20.003C182.363 8.65921 191.263 0.00292969 202.85 0.00292969C214.435 0.00292969 223.337 8.65921 223.337 20.003C223.337 31.3467 214.52 40.003 202.85 40.003C191.178 40.003 182.363 31.3467 182.363 20.003ZM214.94 20.003C214.94 12.9428 209.733 7.73492 202.85 7.64956C195.882 7.73492 190.76 12.9428 190.76 20.003C190.76 27.063 195.882 32.271 202.85 32.271C209.818 32.271 214.94 27.0593 214.94 20.003Z" fill="black"/>
</g>
<defs>
<clipPath id="clip0_505_16">
<rect width="223.333" height="40" fill="black"/>
</clipPath>
</defs>
</svg>
