<svg width="121" height="40" viewBox="0 0 121 40" fill="none" xmlns="http://www.w3.org/2000/svg">
<path d="M5.36523 0.929235C3.03516 1.96945 2.16138 2.76001 1.03795 4.84044C0.205774 6.42156 0.164166 7.0873 0.0393399 21.4839C-0.0854857 37.7112 -0.0438772 38.0441 2.20298 39.0843C3.65928 39.8332 5.65649 39.0843 6.23901 37.628C6.44706 37.0871 6.61349 32.2189 6.61349 26.8514V17.115H9.73413C12.3139 17.115 13.0212 16.9485 13.6869 16.2828C14.8104 15.1594 14.7272 13.5366 13.4789 12.33C12.6051 11.4146 12.1058 11.2898 9.52609 11.2898H6.61349V9.45899C6.61349 8.29395 6.90475 7.29534 7.40405 6.67122C8.1114 5.75583 8.56909 5.67261 11.4401 5.67261C14.4775 5.67261 14.7272 5.58939 15.3097 4.59079C16.1418 3.13449 15.6425 1.47015 14.103 0.679583C12.3139 -0.235805 7.69531 -0.110979 5.36523 0.929235Z" fill="black"/>
<path d="M21.2181 1.13792C20.3859 2.21974 20.3443 2.67744 20.3443 19.4457C20.3443 31.3457 20.4691 36.9629 20.802 37.6702C21.5093 39.1681 23.2985 39.7923 24.7548 39.0849C27.0017 38.0447 27.0017 37.9199 26.9185 19.1544C26.7936 2.76065 26.752 1.76205 26.0031 0.929877C24.7964 -0.401596 22.3415 -0.276771 21.2181 1.13792Z" fill="black"/>
<path d="M66.9875 1.13755C66.1553 2.21937 66.1137 2.67707 66.1137 19.4453C66.1137 31.3454 66.2385 36.9625 66.5714 37.6699C67.1955 39.0429 68.9431 39.7503 70.3578 39.2094C72.1886 38.502 72.7711 37.2122 72.7711 33.7587C72.7711 30.8045 72.8543 30.5132 73.9777 29.4314L75.226 28.2247L80.5519 33.7587C85.3785 38.7101 86.0442 39.2926 87.2925 39.251C89.5393 39.2094 91.0372 37.2538 90.2883 35.2566C90.0802 34.7573 87.7085 31.8863 85.004 28.9737L80.0942 23.6894L81.9666 21.9834C89.8306 14.8268 90.4131 13.9114 88.3743 11.9142C86.7099 10.2082 85.5033 10.5411 82.4243 13.5369C80.8847 14.9932 78.1386 17.5729 76.3078 19.3205L72.9791 22.4411L72.7711 12.039C72.563 1.72007 72.563 1.63686 71.5644 0.846293C70.1081 -0.318747 68.0277 -0.193921 66.9875 1.13755Z" fill="black"/>
<path d="M102.022 11.3317C95.1565 13.953 91.4949 23.1901 94.2411 30.9293C96.1135 36.2968 101.731 40 107.972 40C110.926 40 115.337 38.5853 117.084 37.0458C118.873 35.4647 119.123 33.3842 117.625 32.344C116.335 31.4286 115.628 31.5119 113.256 32.7185C109.345 34.7573 105.309 34.4661 102.48 32.0112C101.065 30.7629 99.8166 28.8489 99.8166 27.9335C99.8166 27.6423 102.812 27.5174 108.762 27.5174C118.582 27.5174 119.955 27.2262 120.454 25.229C121.162 22.358 118.873 16.616 116.002 13.9947C112.133 10.4995 106.807 9.50093 102.022 11.3317ZM110.052 16.9489C111.883 17.8226 113.547 19.8199 113.547 21.1097V22.1083H106.64H99.7334L100.025 20.9849C100.441 19.3205 101.689 17.7394 103.229 16.9905C105.018 16.1167 108.263 16.1167 110.052 16.9489Z" fill="black"/>
<path d="M35.4066 11.7062C34.5328 12.5384 34.4912 12.8296 34.4912 22.0251C34.4912 31.0542 34.5328 31.5535 35.4898 33.5507C37.5702 38.0444 40.6493 39.792 46.3496 39.792C51.0514 39.792 53.3399 38.9598 55.67 36.4633C58.2497 33.6339 58.6242 31.8031 58.6242 21.4426V12.58L57.5424 11.7478C56.1277 10.6244 54.8794 10.6244 53.4647 11.7478L52.3829 12.58V20.9849C52.3829 28.2664 52.2581 29.5979 51.5923 31.0958C49.7616 35.0902 43.4371 35.1734 41.4814 31.2622C40.8573 30.014 40.7325 28.5577 40.7325 21.3594C40.7325 12.9545 40.7325 12.9129 39.6923 11.9143C38.444 10.6244 36.6549 10.5828 35.4066 11.7062Z" fill="black"/>
</svg>
