<svg width="197" height="40" viewBox="0 0 197 40" fill="none" xmlns="http://www.w3.org/2000/svg">
<path d="M17.1715 38.2327C13.2307 34.3809 11.0423 29.2537 11.0065 23.7939V17.79C6.74736 22.5381 5.2502 28.8662 6.50787 34.7262C9.88937 37.7915 14.3278 39.7448 19.2265 40C18.5095 39.4588 17.8225 38.8697 17.1715 38.2327Z" fill="black"/>
<path d="M19.5602 0C14.6876 0.183389 10.2549 2.06102 6.85083 5.05451C7.71936 4.94447 8.60075 4.88804 9.49071 4.88523C9.50785 4.88523 9.52641 4.88523 9.54355 4.88523C15.069 4.88523 20.2572 7.02947 24.1842 10.868L28.5083 15.1381C28.1155 8.80835 24.6428 3.28127 19.5602 0Z" fill="black"/>
<path d="M34.1586 5.2754C30.8031 2.221 26.4037 0.26934 21.5469 0C22.2432 0.530218 22.9109 1.10698 23.5443 1.72886C27.479 5.59127 29.6621 10.7313 29.6907 16.2041L29.6721 22.2099C33.9156 17.462 35.4083 11.1346 34.1586 5.2754Z" fill="black"/>
<path d="M31.1942 35.0429C31.177 35.0429 31.1598 35.0429 31.1412 35.0429C25.6198 35.0429 20.4205 32.9403 16.488 29.1165L12.1547 24.8618C12.5656 31.1979 16.0614 36.7273 21.1662 39.9999C26.065 39.8007 30.5156 37.8917 33.9227 34.862C33.0251 34.9793 32.1146 35.0415 31.1942 35.0429Z" fill="black"/>
<path d="M35.486 6.62988C35.5993 7.49847 35.6595 8.37977 35.6623 9.26955C35.6766 14.7509 33.5304 19.9129 29.6207 23.8081L25.3039 28.0663C31.7311 27.6638 37.3411 24.2177 40.663 19.1856C40.4637 14.3681 38.5411 9.98842 35.486 6.62988Z" fill="black"/>
<path d="M5.40555 6.38288C2.2718 9.70486 0.269632 14.0721 0 18.895C0.539263 18.2066 1.12586 17.5465 1.75978 16.9202C5.68665 13.0382 10.9158 10.8884 16.482 10.8601L16.4877 10.8531H22.6519C17.823 6.64243 11.379 5.15565 5.40555 6.38288Z" fill="black"/>
<path d="M38.8756 23.1041C34.9585 26.9578 29.7453 29.0971 24.1954 29.1307L18.1215 29.1322C22.9538 33.2817 29.3844 34.734 35.3365 33.4948C38.4301 30.1948 40.4037 25.8728 40.663 21.105C40.1145 21.8031 39.5201 22.4704 38.8756 23.1041Z" fill="black"/>
<path d="M15.3591 11.9336C8.93822 12.3276 3.33014 15.7593 0 20.7785C0.192096 25.6097 2.11592 30.0033 5.18086 33.3701C5.06474 32.4987 5.00453 31.6133 5.00167 30.7193C4.98876 25.2369 7.13623 20.0724 11.0498 16.1774L15.3591 11.9336Z" fill="black"/>
<path d="M60.7978 12.5458C63.1955 12.5148 65.1293 13.3193 66.5989 14.959C68.0839 16.5988 68.811 18.664 68.7801 21.1546C68.811 23.6452 68.0839 25.7104 66.5989 27.3502C65.1293 28.99 63.1955 29.7944 60.7978 29.7635C58.3845 29.7635 56.4431 28.959 54.9735 27.3502C53.5193 25.7259 52.7922 23.6607 52.7922 21.1546C52.7922 18.6485 53.5193 16.5911 54.9735 14.9822C56.4431 13.3579 58.3845 12.5458 60.7978 12.5458ZM64.5569 16.6762C63.6132 15.5314 62.3602 14.959 60.7978 14.959C59.2353 14.959 57.9823 15.5314 57.0386 16.6762C56.095 17.8054 55.6232 19.2983 55.6232 21.1546C55.6232 23.011 56.095 24.5115 57.0386 25.6563C57.9823 26.7856 59.2353 27.3502 60.7978 27.3502C62.3602 27.3502 63.6132 26.7856 64.5569 25.6563C65.5005 24.5115 65.9723 23.011 65.9723 21.1546C65.9723 19.2983 65.5005 17.8054 64.5569 16.6762ZM73.7155 12.9171H81.2802C82.92 12.9171 84.2272 13.3734 85.2017 14.2861C86.1763 15.1988 86.6636 16.4364 86.6636 17.9988C86.6636 19.5613 86.1763 20.7988 85.2017 21.7115C84.2272 22.6088 82.92 23.0574 81.2802 23.0574H76.4769V29.3922H73.7155V12.9171ZM80.8161 15.1911H76.4769V20.7833H80.8161C81.7907 20.7833 82.5564 20.5436 83.1133 20.064C83.6703 19.569 83.9487 18.8806 83.9487 17.9988C83.9487 17.1171 83.6703 16.4287 83.1133 15.9336C82.5564 15.4386 81.7907 15.1911 80.8161 15.1911ZM102.814 12.9171V15.2375H94.2744V19.7392H102.257V22.0364H94.2744V27.0717H103.046V29.3922H91.5131V12.9171H102.814ZM121.589 29.3922H118.526L114.372 23.0574H110.961V29.3922H108.2V12.9171H115.602C117.18 12.9171 118.472 13.3811 119.477 14.3093C120.483 15.2375 120.986 16.4673 120.986 17.9988C120.986 19.2364 120.653 20.2883 119.988 21.1546C119.323 22.0054 118.41 22.5701 117.25 22.8485L121.589 29.3922ZM110.961 15.1911V20.7833H115.138C116.113 20.7833 116.878 20.5436 117.435 20.064C117.992 19.569 118.271 18.8806 118.271 17.9988C118.271 17.1171 117.984 16.4287 117.412 15.9336C116.855 15.4386 116.089 15.1911 115.115 15.1911H110.961ZM137.476 29.3922L136.2 25.6795H128.914L127.638 29.3922H124.853L130.793 12.9171H134.39L140.33 29.3922H137.476ZM129.703 23.4055H135.411L134.692 21.3867C134.599 21.0927 134.444 20.6596 134.228 20.0872C133.547 18.1535 132.982 16.4596 132.534 15.0055C132.224 16.0574 131.667 17.7513 130.863 20.0872L130.399 21.4099L129.703 23.4055ZM154.356 12.9171V15.2607H149.344V29.3922H146.605V15.2607H141.617V12.9171H154.356ZM165.272 12.5458C167.67 12.5148 169.603 13.3193 171.073 14.959C172.558 16.5988 173.285 18.664 173.254 21.1546C173.285 23.6452 172.558 25.7104 171.073 27.3502C169.603 28.99 167.67 29.7944 165.272 29.7635C162.859 29.7635 160.917 28.959 159.447 27.3502C157.993 25.7259 157.266 23.6607 157.266 21.1546C157.266 18.6485 157.993 16.5911 159.447 14.9822C160.917 13.3579 162.859 12.5458 165.272 12.5458ZM169.031 16.6762C168.087 15.5314 166.834 14.959 165.272 14.959C163.709 14.959 162.456 15.5314 161.513 16.6762C160.569 17.8054 160.097 19.2983 160.097 21.1546C160.097 23.011 160.569 24.5115 161.513 25.6563C162.456 26.7856 163.709 27.3502 165.272 27.3502C166.834 27.3502 168.087 26.7856 169.031 25.6563C169.975 24.5115 170.446 23.011 170.446 21.1546C170.446 19.2983 169.975 17.8054 169.031 16.6762ZM191.579 29.3922H188.516L184.362 23.0574H180.951V29.3922H178.19V12.9171H185.592C187.17 12.9171 188.462 13.3811 189.467 14.3093C190.473 15.2375 190.976 16.4673 190.976 17.9988C190.976 19.2364 190.643 20.2883 189.978 21.1546C189.313 22.0054 188.4 22.5701 187.24 22.8485L191.579 29.3922ZM180.951 15.1911V20.7833H185.128C186.103 20.7833 186.868 20.5436 187.425 20.064C187.982 19.569 188.261 18.8806 188.261 17.9988C188.261 17.1171 187.975 16.4287 187.402 15.9336C186.845 15.4386 186.08 15.1911 185.105 15.1911H180.951Z" fill="black"/>
</svg>
