<svg width="240" height="40" viewBox="0 0 240 40" fill="none" xmlns="http://www.w3.org/2000/svg">
<path d="M6.33063 1.04297V10.5206H34.7636C37.3817 10.5206 39.5024 8.39989 39.5024 5.7818C39.5024 3.16371 37.3817 1.04297 34.7636 1.04297H6.33063Z" fill="black"/>
<path d="M19.7355 18.4429V21.5543H9.51372V18.4429H19.7355ZM22.9186 15.2598H6.33063V24.7374H22.9186V15.2598Z" fill="black"/>
<path d="M36.318 32.6577V35.7692H26.0964V32.6577H36.318ZM39.5011 29.4746H22.9133V38.9523H39.5011V29.4746Z" fill="black"/>
<path d="M3.1831 1.04297H0V38.9575H3.1831V1.04297Z" fill="black"/>
<path d="M62.3023 35.7297V4.51953H74.9194C76.849 4.51953 78.552 4.85376 80.0243 5.5222C81.4964 6.19065 82.6463 7.1416 83.4779 8.37504C84.3094 9.60849 84.7272 11.0886 84.7272 12.8115V13.3008C84.7272 15.35 84.2378 16.9734 83.2551 18.159C82.2763 19.3487 81.1145 20.1524 79.7776 20.5663V21.1909C80.8479 21.2228 81.7312 21.569 82.4315 22.2373C83.1278 22.9059 83.4779 23.9084 83.4779 25.2454V35.7217H79.7776V25.691C79.7776 24.7998 79.5309 24.1154 79.0414 23.6419C78.552 23.1684 77.816 22.9297 76.8332 22.9297H66.0425V35.7257H62.2983L62.3023 35.7297ZM66.0465 19.5437H74.5613C76.6103 19.5437 78.194 19.0464 79.308 18.0517C80.4221 17.0568 80.9791 15.6643 80.9791 13.8817V13.5674C80.9791 11.7849 80.4301 10.3963 79.3279 9.39761C78.2298 8.4029 76.6382 7.90553 74.5573 7.90553H66.0425V19.5437H66.0465Z" fill="black"/>
<path d="M98.423 36.3551C96.2227 36.3551 94.285 35.8936 92.6059 34.9745C90.9268 34.0554 89.6178 32.7542 88.6827 31.0752C87.7477 29.3961 87.2782 27.4106 87.2782 25.1229V24.542C87.2782 22.282 87.7477 20.3044 88.6827 18.6134C89.6178 16.9183 90.9268 15.6133 92.6059 14.6902C94.285 13.7711 96.2227 13.3096 98.423 13.3096C100.623 13.3096 102.561 13.7711 104.24 14.6902C105.919 15.6133 107.228 16.9183 108.163 18.6134C109.098 20.3084 109.568 22.286 109.568 24.542V25.1229C109.568 27.4106 109.098 29.3961 108.163 31.0752C107.228 32.7542 105.919 34.0554 104.24 34.9745C102.561 35.8976 100.619 36.3551 98.423 36.3551ZM98.423 33.188C100.743 33.188 102.593 32.4519 103.974 30.9798C105.354 29.5075 106.047 27.5261 106.047 25.0274V24.6254C106.047 22.1307 105.354 20.1453 103.974 18.6731C102.593 17.2009 100.743 16.4648 98.423 16.4648C96.1034 16.4648 94.2929 17.2009 92.8964 18.6731C91.4997 20.1453 90.7995 22.1267 90.7995 24.6254V25.0274C90.7995 27.5261 91.4959 29.5075 92.8964 30.9798C94.2929 32.4519 96.1352 33.188 98.423 33.188Z" fill="black"/>
<path d="M113.982 35.7297V4.51953H117.503V35.7297H113.982Z" fill="black"/>
<path d="M122.873 35.7297V4.51953H126.394V35.7297H122.873Z" fill="black"/>
<path d="M140.573 36.3552C137.867 36.3552 135.587 35.7306 133.729 34.4811C131.871 33.2319 130.748 31.2583 130.363 28.5526L133.704 27.7928C133.943 29.2211 134.39 30.3431 135.043 31.1588C135.694 31.9744 136.506 32.5555 137.474 32.8975C138.44 33.2397 139.471 33.4108 140.573 33.4108C142.208 33.4108 143.501 33.0846 144.452 32.4321C145.403 31.7795 145.88 30.9002 145.88 29.8021C145.88 28.7039 145.427 27.8762 144.52 27.4147C143.613 26.9531 142.372 26.5752 140.795 26.2768L138.969 25.9664C137.573 25.7277 136.295 25.3577 135.134 24.8524C133.975 24.347 133.053 23.6627 132.368 22.8032C131.684 21.9399 131.342 20.8575 131.342 19.5485C131.342 17.587 132.102 16.0551 133.614 14.9569C135.129 13.8587 137.135 13.3057 139.634 13.3057C142.133 13.3057 144.098 13.8627 145.63 14.9768C147.161 16.0908 148.148 17.6586 148.594 19.6799L145.295 20.5273C145.028 18.9517 144.388 17.8455 143.378 17.205C142.368 16.5644 141.117 16.2461 139.634 16.2461C138.15 16.2461 136.972 16.5206 136.112 17.0697C135.249 17.6188 134.819 18.4304 134.819 19.5008C134.819 20.5711 135.23 21.3072 136.045 21.7966C136.861 22.2859 137.955 22.652 139.324 22.8907L141.15 23.2011C142.693 23.4677 144.086 23.8338 145.32 24.2953C146.552 24.7569 147.532 25.4174 148.263 26.2808C148.992 27.1441 149.357 28.2742 149.357 29.6707C149.357 31.8113 148.563 33.4586 146.97 34.6204C145.379 35.7783 143.246 36.3592 140.573 36.3592V36.3552Z" fill="black"/>
<path d="M161.461 35.7299C160.212 35.7299 159.253 35.3877 158.585 34.7035C157.916 34.0191 157.582 33.084 157.582 31.8943V17.0014H151.028V13.9258H157.582V6.16699H161.103V13.9258H168.237V17.0014H161.103V31.3571C161.103 32.2484 161.533 32.694 162.396 32.694H167.254V35.7259H161.457L161.461 35.7299Z" fill="black"/>
<path d="M178.413 36.3552C176.897 36.3552 175.516 36.0886 174.267 35.5516C173.017 35.0184 172.039 34.2424 171.323 33.2318C170.61 32.2212 170.252 30.9877 170.252 29.5314C170.252 28.0752 170.61 26.8179 171.323 25.855C172.035 24.8882 173.017 24.1601 174.267 23.6707C175.516 23.1812 176.912 22.9345 178.457 22.9345H185.813V21.331C185.813 19.7873 185.36 18.5658 184.453 17.6745C183.546 16.7832 182.2 16.3376 180.418 16.3376C178.635 16.3376 177.298 16.7593 176.316 17.6068C175.333 18.4543 174.664 19.5923 174.311 21.0167L171.012 19.9464C171.37 18.7289 171.932 17.6228 172.707 16.6241C173.479 15.6294 174.514 14.8256 175.806 14.2169C177.099 13.6081 178.652 13.3018 180.466 13.3018C183.259 13.3018 185.431 14.0219 186.975 15.4623C188.519 16.9027 189.295 18.9318 189.295 21.5499V31.4015C189.295 32.2929 189.708 32.7384 190.544 32.7384H192.55V35.7265H189.474C188.492 35.7265 187.703 35.4521 187.111 34.9029C186.514 34.3539 186.219 33.6178 186.219 32.6947V32.4718H185.686C185.36 33.0369 184.923 33.6258 184.369 34.2345C183.819 34.8433 183.068 35.3486 182.117 35.7504C181.166 36.1523 179.933 36.3513 178.417 36.3513L178.413 36.3552ZM178.814 33.3233C180.895 33.3233 182.582 32.7067 183.876 31.4732C185.169 30.2397 185.817 28.509 185.817 26.2807V25.7913H178.596C177.199 25.7913 176.045 26.0978 175.142 26.7065C174.235 27.3153 173.781 28.2304 173.781 29.4479C173.781 30.6655 174.25 31.6165 175.186 32.3007C176.121 32.9851 177.334 33.3273 178.818 33.3273L178.814 33.3233Z" fill="black"/>
<path d="M205.154 36.3552C203.041 36.3552 201.147 35.9016 199.467 34.9944C197.788 34.0873 196.463 32.7861 195.501 31.0912C194.534 29.3962 194.053 27.3909 194.053 25.0712V24.5818C194.053 22.2343 194.534 20.221 195.501 18.5419C196.467 16.8628 197.788 15.5696 199.467 14.6625C201.147 13.7553 203.041 13.3018 205.154 13.3018C207.266 13.3018 209.009 13.6877 210.481 14.4596C211.954 15.2314 213.111 16.258 213.959 17.5352C214.806 18.8125 215.347 20.1811 215.586 21.6374L212.152 22.3496C212.001 21.2793 211.655 20.3006 211.106 19.4052C210.556 18.514 209.788 17.8018 208.81 17.2647C207.827 16.7314 206.626 16.461 205.197 16.461C203.769 16.461 202.44 16.7872 201.298 17.4397C200.152 18.0922 199.249 19.0313 198.581 20.2489C197.912 21.4663 197.578 22.9225 197.578 24.6176V25.0194C197.578 26.7144 197.912 28.1708 198.581 29.3882C199.249 30.6058 200.156 31.5449 201.298 32.1974C202.444 32.8499 203.741 33.1761 205.197 33.1761C207.365 33.1761 209.025 32.6112 210.17 31.4811C211.316 30.3512 212.021 28.9545 212.288 27.2914L215.765 28.0513C215.439 29.4797 214.843 30.8326 213.982 32.1098C213.119 33.387 211.954 34.4135 210.481 35.1855C209.009 35.9574 207.235 36.3433 205.154 36.3433V36.3552Z" fill="black"/>
<path d="M219.768 35.7297V4.51953H223.289V22.8899H223.914L233.901 13.9295H238.806L226.723 24.5412L239.161 35.7337H234.303L223.914 26.2362H223.289V35.7337H219.768V35.7297Z" fill="black"/>
</svg>
