<svg width="272" height="40" viewBox="0 0 272 40" fill="none" xmlns="http://www.w3.org/2000/svg">
<path d="M11.6347 37.562V7.97378H0V2.45733H29.7888V7.97378H18.1541V37.562H11.6347ZM33.4431 37.562V10.7822H39.4109V18.1541L38.7088 15.9977C39.5112 14.1923 40.765 12.8216 42.4701 11.8854C44.2086 10.9493 46.365 10.4813 48.9393 10.4813V16.4491C48.6719 16.3822 48.4211 16.3488 48.1871 16.3488C47.9531 16.3153 47.719 16.2986 47.485 16.2986C45.1113 16.2986 43.2223 17.0007 41.8181 18.4049C40.4139 19.7756 39.7118 21.8318 39.7118 24.5733V37.562H33.4431ZM66.5997 37.9131C63.6241 37.9131 61.0163 37.328 58.7763 36.1578C56.5697 34.9542 54.8479 33.316 53.6109 31.2432C52.4073 29.1703 51.8055 26.8133 51.8055 24.1721C51.8055 21.4974 52.3906 19.1404 53.5608 17.101C54.7644 15.0282 56.4026 13.4066 58.4754 12.2365C60.5817 11.0663 62.9722 10.4813 65.6468 10.4813C68.2546 10.4813 70.5782 11.0496 72.6176 12.1863C74.657 13.3231 76.2618 14.9279 77.432 17.0007C78.6021 19.0735 79.1872 21.5142 79.1872 24.3225C79.1872 24.59 79.1705 24.8909 79.137 25.2252C79.137 25.5596 79.1203 25.8772 79.0869 26.1781H56.7703V22.0157H75.777L73.3197 23.3195C73.3531 21.7816 73.0355 20.4276 72.3669 19.2574C71.6982 18.0873 70.7788 17.1679 69.6086 16.4992C68.4719 15.8305 67.1513 15.4962 65.6468 15.4962C64.1089 15.4962 62.7549 15.8305 61.5847 16.4992C60.448 17.1679 59.5453 18.104 58.8766 19.3076C58.2414 20.4777 57.9238 21.8652 57.9238 23.47V24.473C57.9238 26.0778 58.2915 27.4987 59.0271 28.7357C59.7626 29.9727 60.799 30.9256 62.1363 31.5942C63.4737 32.2629 65.0116 32.5972 66.7501 32.5972C68.2546 32.5972 69.6086 32.3632 70.8122 31.8951C72.0158 31.4271 73.0857 30.6915 74.0218 29.6885L77.3818 33.5501C76.1782 34.9542 74.657 36.0408 72.8182 36.8098C71.0128 37.5453 68.94 37.9131 66.5997 37.9131ZM100.404 10.4813C102.544 10.4813 104.45 10.8992 106.121 11.735C107.826 12.5708 109.164 13.858 110.133 15.5965C111.103 17.3016 111.588 19.5082 111.588 22.2163V37.562H105.319V23.0186C105.319 20.6449 104.751 18.873 103.614 17.7028C102.511 16.5326 100.956 15.9476 98.95 15.9476C97.4789 15.9476 96.175 16.2485 95.0383 16.8503C93.9016 17.452 93.0156 18.3547 92.3804 19.5583C91.7786 20.7285 91.4777 22.2163 91.4777 24.0216V37.562H85.209V10.7822H91.1768V18.0037L90.1236 15.7971C91.0598 14.092 92.4138 12.7881 94.1858 11.8854C95.9911 10.9493 98.064 10.4813 100.404 10.4813ZM130.922 37.9131C128.348 37.9131 126.024 37.3447 123.952 36.208C121.912 35.0378 120.307 33.433 119.137 31.3936C117.967 29.3542 117.382 26.947 117.382 24.1721C117.382 21.3971 117.967 18.99 119.137 16.9506C120.307 14.9111 121.912 13.3231 123.952 12.1863C126.024 11.0496 128.348 10.4813 130.922 10.4813C133.162 10.4813 135.168 10.9828 136.94 11.9857C138.712 12.9553 140.116 14.4431 141.153 16.4491C142.189 18.455 142.708 21.0294 142.708 24.1721C142.708 27.2814 142.206 29.8557 141.203 31.8951C140.2 33.9011 138.813 35.4056 137.041 36.4086C135.269 37.4116 133.229 37.9131 130.922 37.9131ZM131.675 32.5471C133.179 32.5471 134.516 32.2127 135.687 31.5441C136.89 30.8754 137.843 29.9059 138.545 28.6354C139.281 27.3649 139.648 25.8772 139.648 24.1721C139.648 22.4336 139.281 20.9458 138.545 19.7088C137.843 18.4383 136.89 17.4688 135.687 16.8001C134.516 16.1314 133.179 15.7971 131.675 15.7971C130.17 15.7971 128.816 16.1314 127.613 16.8001C126.442 17.4688 125.49 18.4383 124.754 19.7088C124.052 20.9458 123.701 22.4336 123.701 24.1721C123.701 25.8772 124.052 27.3649 124.754 28.6354C125.49 29.9059 126.442 30.8754 127.613 31.5441C128.816 32.2127 130.17 32.5471 131.675 32.5471ZM139.799 37.562V31.2432L140.05 24.1219L139.548 17.0007V0.351044H145.767V37.562H139.799ZM154.87 37.562V9.27767C154.87 6.46929 155.689 4.22928 157.328 2.55763C158.999 0.852543 161.373 0 164.449 0C165.552 0 166.588 0.117015 167.558 0.351044C168.561 0.585079 169.397 0.952842 170.066 1.45434L168.36 6.1684C167.892 5.80063 167.357 5.53317 166.756 5.366C166.154 5.16541 165.535 5.06511 164.9 5.06511C163.596 5.06511 162.61 5.43287 161.941 6.1684C161.273 6.87049 160.938 7.94035 160.938 9.37797V12.3869L161.139 15.1953V37.562H154.87ZM150.457 15.9977V10.9828H168.31V15.9977H150.457ZM183.864 37.9131C181.59 37.9131 179.584 37.4952 177.846 36.6593C176.107 35.7901 174.753 34.4862 173.784 32.7477C172.814 30.9757 172.329 28.7524 172.329 26.0778V10.7822H178.598V25.2252C178.598 27.6324 179.133 29.4378 180.203 30.6414C181.306 31.8115 182.861 32.3966 184.867 32.3966C186.338 32.3966 187.608 32.0957 188.678 31.4939C189.781 30.8921 190.634 29.9894 191.236 28.7858C191.871 27.5823 192.188 26.0945 192.188 24.3225V10.7822H198.457V37.562H192.489V30.3405L193.542 32.5471C192.64 34.2856 191.319 35.6229 189.581 36.559C187.842 37.4617 185.936 37.9131 183.864 37.9131ZM206.665 37.562V0.351044H212.934V37.562H206.665Z" fill="black"/>
<path d="M230.035 40C230.035 32.8461 235.834 27.0467 242.988 27.0467H258.194C258.194 34.2006 252.395 40 245.241 40H230.035Z" fill="black"/>
<path d="M230.035 23.386C230.035 16.232 235.834 10.4326 242.988 10.4326L269.458 10.4326C269.458 17.5865 263.658 23.386 256.504 23.386H230.035Z" fill="black"/>
</svg>
