<svg width="232" height="40" viewBox="0 0 232 40" fill="none" xmlns="http://www.w3.org/2000/svg">
<path d="M60.0068 5.00537H41.6754H42.3997V10.0029H48.5717V31.5076H53.7969V10.0029H60.0068V5.00537Z" fill="black"/>
<path d="M65.0046 15.8336V12.5776H60.1203V31.5078H65.0046V22.4591C65.0046 18.4838 68.2231 17.348 70.76 17.6508V12.199C68.3748 12.199 65.9892 13.2591 65.0046 15.8336Z" fill="black"/>
<path d="M75.9858 10.3059C77.6517 10.3059 79.0151 8.94296 79.0151 7.31496C79.0151 5.68696 77.6517 4.28613 75.9858 4.28613C74.3575 4.28613 72.9944 5.68696 72.9944 7.31496C72.9944 8.94296 74.3575 10.3059 75.9858 10.3059ZM73.5624 31.5078H78.4471V12.5775H73.5624V31.5078Z" fill="black"/>
<path d="M97.0009 12.5774V14.9247C95.6757 13.1453 93.6311 12.0474 90.9425 12.0474C85.5659 12.0474 81.5142 16.4391 81.5142 21.7396C81.5142 27.0779 85.5659 31.4319 90.9425 31.4319C93.6311 31.4319 95.6757 30.3339 97.0009 28.5544V30.5989C97.0009 33.5898 95.1077 35.2556 92.0406 35.2556C89.1249 35.2556 87.8757 34.0821 87.0803 32.6055L82.9154 34.9907C84.5812 38.0575 87.8376 39.6095 91.8892 39.6095C96.8874 39.6095 101.772 36.8079 101.772 30.5989V12.5774H97.0009ZM91.7 26.9264C88.6329 26.9264 86.3988 24.7684 86.3988 21.7396C86.3988 18.7486 88.6329 16.5906 91.7 16.5906C94.7668 16.5906 97.0009 18.7486 97.0009 21.7396C97.0009 24.7684 94.7668 26.9264 91.7 26.9264Z" fill="black"/>
<path d="M120.288 12.5774V14.9247C118.963 13.1453 116.918 12.0474 114.23 12.0474C108.853 12.0474 104.801 16.4391 104.801 21.7396C104.801 27.0779 108.853 31.4319 114.23 31.4319C116.918 31.4319 118.963 30.3339 120.288 28.5544V30.5989C120.288 33.5898 118.395 35.2556 115.328 35.2556C112.412 35.2556 111.162 34.0821 110.367 32.6055L106.202 34.9907C107.868 38.0575 111.125 39.6095 115.176 39.6095C120.174 39.6095 125.059 36.8079 125.059 30.5989V12.5774H120.288ZM114.987 26.9264C111.92 26.9264 109.686 24.7684 109.686 21.7396C109.686 18.7486 111.92 16.5906 114.987 16.5906C118.054 16.5906 120.288 18.7486 120.288 21.7396C120.288 24.7684 118.054 26.9264 114.987 26.9264Z" fill="black"/>
<path d="M133.2 24.0491H147.475C147.589 23.4054 147.664 22.7618 147.664 22.0425C147.664 16.477 143.688 12.0474 138.085 12.0474C132.14 12.0474 128.088 16.4013 128.088 22.0425C128.088 27.6836 132.102 32.0375 138.463 32.0375C142.098 32.0375 144.938 30.561 146.718 27.9865L142.78 25.7149C141.947 26.8128 140.432 27.6079 138.539 27.6079C135.964 27.6079 133.882 26.5478 133.2 24.0491ZM133.124 20.263C133.692 17.84 135.472 16.4391 138.085 16.4391C140.129 16.4391 142.174 17.5371 142.78 20.263H133.124Z" fill="black"/>
<path d="M155.446 15.8336V12.5776H150.561V31.5078H155.446V22.4591C155.446 18.4838 158.664 17.348 161.201 17.6508V12.199C158.816 12.199 156.43 13.2591 155.446 15.8336Z" fill="black"/>
<path d="M163.057 31.9996C164.836 31.9996 166.275 30.561 166.275 28.7816C166.275 27.0022 164.836 25.5635 163.057 25.5635C161.277 25.5635 159.838 27.0022 159.838 28.7816C159.838 30.561 161.277 31.9996 163.057 31.9996Z" fill="black"/>
<path d="M183.579 5.00537V14.8112C182.216 13.0696 180.209 12.0474 177.445 12.0474C172.371 12.0474 168.206 16.4013 168.206 22.0425C168.206 27.6836 172.371 32.0375 177.445 32.0375C180.209 32.0375 182.216 31.0153 183.579 29.2738V31.5076H188.463V5.00537H183.579ZM178.354 27.3808C175.325 27.3808 173.09 25.2228 173.09 22.0425C173.09 18.8622 175.325 16.7042 178.354 16.7042C181.345 16.7042 183.579 18.8622 183.579 22.0425C183.579 25.2228 181.345 27.3808 178.354 27.3808Z" fill="black"/>
<path d="M196.302 24.0491H210.576C210.69 23.4054 210.766 22.7618 210.766 22.0425C210.766 16.477 206.79 12.0474 201.186 12.0474C195.241 12.0474 191.19 16.4013 191.19 22.0425C191.19 27.6836 195.203 32.0375 201.565 32.0375C205.2 32.0375 208.039 30.561 209.819 27.9865L205.881 25.7149C205.048 26.8128 203.534 27.6079 201.64 27.6079C199.066 27.6079 196.983 26.5478 196.302 24.0491ZM196.226 20.263C196.794 17.84 198.573 16.4391 201.186 16.4391C203.231 16.4391 205.275 17.5371 205.881 20.263H196.226Z" fill="black"/>
<path d="M225.495 12.5774L220.876 25.8285L216.294 12.5774H210.917L218.111 31.5076H223.678L230.872 12.5774H225.495Z" fill="black"/>
<path fill-rule="evenodd" clip-rule="evenodd" d="M10.9735 13.0446L18.2804 0.390381L36.3889 31.752H0.171936L7.47882 19.0974L12.6476 22.0813L10.5098 25.7837H26.051L18.2804 12.3265L16.1427 16.0289L10.9735 13.0446Z" fill="black"/>
</svg>
